<svg xmlns="http://www.w3.org/2000/svg" width="289" height="60" viewBox="0 0 289 60" fill="none">
  <path d="M22.7765 42.6976C27.4027 50.2826 35.8873 55.3717 45.3301 55.3717C59.2823 55.3717 66.9628 43.331 66.9628 43.331L67.9514 46.5383C61.4919 54.9392 49.9525 60 37.0422 60C22.1782 60 9.35907 52.9092 3.46059 42.6837C1.23974 38.8323 0 34.5302 0 29.9995C0 13.4307 16.5826 0 37.0417 0C51.4973 0 63.1359 6.19175 69.2455 15.1648L44.9904 29.6891L58.8328 8.43393C54.8726 5.94327 50.0139 3.61096 44.9904 3.61096C30.7897 3.61096 19.0935 15.4612 19.0935 29.6614C19.0935 34.4193 20.4447 38.8898 22.7765 42.6976ZM87.7215 42.689C87.6488 43.1735 87.6125 43.6628 87.6128 44.1527C87.6128 49.543 91.983 53.9138 97.3739 53.9138C102.765 53.9138 107.134 49.5436 107.134 44.1527C107.135 43.661 107.098 43.17 107.025 42.6837C106.319 37.993 102.267 34.3921 97.3734 34.3921C92.48 34.3921 88.4275 37.993 87.7215 42.689ZM123.94 42.6837L128.792 59.0247H111.775L108.429 47.8351C106.188 54.2828 98.6264 59.0247 89.6438 59.0247C78.8962 59.0247 70.1845 52.2369 70.1845 43.8621C70.1845 43.4702 70.2037 43.0809 70.241 42.6837C71.0056 34.8672 79.4001 28.6995 89.6438 28.6995C95.458 28.6995 100.677 30.6863 104.242 33.836L99.607 18.3385H80.0762C80.0762 18.3385 83.3257 16.3896 97.736 11.1464C112.146 5.90381 116.713 18.3385 116.713 18.3385L123.94 42.6837ZM178.349 42.6837V59.0247H160.839V23.122C160.839 21.8533 160.335 20.6366 159.438 19.7395C158.541 18.8425 157.324 18.3385 156.055 18.3385C155.092 18.3383 154.151 18.629 153.355 19.1727C152.56 19.7163 151.947 20.4875 151.597 21.3853V59.0247H134.412V18.3385H124.389C124.389 18.3385 138.332 9.89176 143.167 9.89176C147.749 9.89176 151.14 13.4121 151.564 17.8964C158.307 14.2594 164.994 9.89176 169.594 9.89176C174.347 9.89176 178.216 13.6797 178.349 18.4025V42.6837ZM205.323 42.6837L207.759 50.738C207.806 54.19 210.643 56.9516 214.125 56.9516C217.685 56.9516 220.569 54.0669 220.569 50.5076C220.569 50.2554 220.555 50.0075 220.527 49.7632L218.455 42.6837L211.181 17.8213C210.822 14.5996 208.092 12.095 204.774 12.095C201.491 12.095 198.36 15.1632 197.96 18.338L205.323 42.6837ZM233.189 42.6869C229.873 52.7418 220.402 60 209.235 60C198.068 60 188.597 52.7424 185.28 42.6837C184.44 40.1343 184.014 37.4671 184.017 34.783C184.017 20.8558 195.307 9.56649 209.235 9.56649C223.163 9.56649 234.453 20.8558 234.453 34.783C234.453 37.5435 234.009 40.201 233.189 42.6869ZM262.18 42.6837V59.0247H244.995V18.3385H235.384C235.384 18.3385 248.915 9.89176 253.75 9.89176C258.333 9.89176 261.723 13.4121 262.148 17.8964C268.891 14.2594 275.577 9.89176 280.178 9.89176C284.932 9.89176 288.801 13.6797 288.932 18.4025V59.0247H271.422V23.122C271.422 21.8533 270.918 20.6366 270.021 19.7395C269.124 18.8425 267.907 18.3385 266.639 18.3385C265.675 18.3383 264.734 18.629 263.938 19.1727C263.143 19.7163 262.53 20.4875 262.18 21.3853V42.6837Z" fill="#3E3E3E"/>
</svg>