<svg xmlns="http://www.w3.org/2000/svg" width="391" height="60" fill="none" viewBox="0 0 391 60"><g fill="#3E3E3E" fill-rule="evenodd" clip-path="url(#a)" clip-rule="evenodd"><path d="M237.597 9.4781v47.7295h-13.84V9.4781h13.84Zm-76.584 37.0395c0 .8204-.209 2.3145-.905 3.1127-.696.7982-1.352 1.1584-2.19 1.3674-.756.1912-1.65.4869-3.831.4869s-3.073-.2957-3.833-.4869c-.836-.209-1.492-.5692-2.188-1.3674-.696-.7982-.905-2.2923-.905-3.1127l.002-37.0461h-13.605v33.8444c-.306 5.9675 1.846 11.1125 8.076 13.4715 1.629.6159 7.101 1.8543 12.448 1.8543 5.348 0 10.817-1.2384 12.451-1.8543 6.23-2.359 8.383-7.6729 8.076-13.6405V9.4715h-13.605l.009 37.0461Zm30.769.3335c0 .9293.14 2.3968.898 3.1527.759.756 1.626 1.4675 3.878 1.4675 2.25 0 3.215-.7115 3.971-1.4675.76-.7559.803-2.2234.803-3.1527l-.005-37.3796h13.845v34.2224c0 3.9176-.591 5.0115-1.307 6.5278-1.285 2.7326-3.235 4.7759-6.606 6.5057-2.076 1.065-5.685 1.9098-10.692 1.9098-4.785-.0466-8.736-.9427-10.757-1.9765-3.368-1.7232-5.025-3.7087-6.314-6.439-.485-1.025-1.039-3.1928-1.076-6.5278l-.003-4.3912h13.367l-.002 7.5484ZM246.2 15.9126v41.2906h14.316V36.1988h17.66v-7.1571h-17.66V16.6308h18.616V9.4715H252.63c-1.997 0-3.765.1267-5.03 1.3896-1.265 1.2629-1.4 2.9059-1.4 5.0515Zm51.553-6.4345v47.7295h-13.838V9.4781h13.838Zm8.574 41.2906c0 1.9966.131 3.7686 1.394 5.0337 1.263 1.2651 2.901 1.403 5.049 1.403l23.15.0044v-7.1615h-15.75V9.4781h-13.845l.002 41.2906Zm33.406 6.4389V9.4781h15.273l8.355 31.501 8.356-31.501h19.09v47.7295h-13.363V23.7945l-9.071 33.4131h-11.695l-9.305-33.4131v33.4131h-7.64ZM95.8408 15.9126v41.2906h14.3212V36.1988h17.66v-7.1571h-17.66V16.6308h18.614V9.4715h-26.503c-1.999 0-3.7664.1267-5.0293 1.3896-1.2628 1.2629-1.4029 2.9059-1.4029 5.0515ZM50.2658 35.6696h6.9058V14.5919h-6.9058v21.0777Z"/><path d="M31.327 35.6696c-3.471.0868-6.9435.0868-10.4144 0-2.6191-.0911-4.4712-2.0966-4.3601-4.7936l.0023-10.0052h-5.5607v14.7988H.0506V4.3732C.0506 1.7296 1.8582.06 4.375.06h42.489l12.5933 10.5855H10.9918v3.9465h12.4688v13.7072c0 .7359.7293 1.5519 1.4585 1.5964a18.2793 18.2793 0 0 0 2.468 0c.7271-.0667 1.4563-.8582 1.4563-1.5942V14.5941h6.9081l-.0022 16.2886c.1245 2.7837-1.8788 4.7002-4.4223 4.7869Z"/><path d="M33.0301 45.895H12.2169l-7.7262-6.4923h26.2915c6.5146.1179 8.7713-4.0221 8.7713-8.4333l.0022-16.3797h6.9414l.0023 17.7293c.1 7.5795-5.0516 13.576-13.4693 13.576Z"/><path d="m60.9047 11.8572 10.7278 9.018v34.3625c0 2.7058-1.8165 4.7025-4.7135 4.7025H28.9724L16.7037 49.6259h44.201V11.8572Z"/></g><defs><clipPath id="a"><path fill="#3E3E3E" d="M0 0h390.857v60H0z"/></clipPath></defs></svg>