<svg xmlns="http://www.w3.org/2000/svg" width="220" height="60" viewBox="0 0 220 60" fill="none">
  <g clip-path="url(#clip0_1_10)">
    <path fill-rule="evenodd" clip-rule="evenodd" d="M134.055 29.1043V0.00219727L125.055 2.40428V22.2428C123.454 20.6404 121.536 19.3891 119.424 18.569C117.312 17.7488 115.053 17.3778 112.789 17.4794C107.151 17.4799 101.743 19.7201 97.7559 23.7073C93.7687 27.6945 91.5285 33.1021 91.5279 38.7408C91.5285 44.3795 93.7687 49.787 97.7559 53.7741C101.743 57.7613 107.151 60.0016 112.789 60.0022C117.174 60.002 121.452 58.6467 125.037 56.1219C128.622 53.5972 131.339 50.0262 132.817 45.8978C134.518 41.1364 134.051 34.1121 134.051 29.1064L134.055 29.1043ZM12.5893 30.0643C11.4484 31.2021 10.5435 32.5542 9.92684 34.0428C9.31014 35.5314 8.99375 37.1272 8.99575 38.7386C8.99632 41.9914 10.2888 45.1109 12.5889 47.4111C14.8891 49.7112 18.0086 51.0037 21.2615 51.0043C24.5144 51.0037 27.6338 49.7112 29.934 47.4111C32.2341 45.1109 33.5266 41.9914 33.5272 38.7386C33.5298 36.7805 33.0616 34.8507 32.1621 33.1115L23.8971 41.3764L17.5393 35.0207L32.5693 19.9908C38.2414 25.3672 42.5208 29.8201 42.5208 38.7408C42.5202 44.3795 40.2799 49.787 36.2927 53.7741C32.3056 57.7613 26.8979 60.0016 21.2592 60.0022C15.6205 60.0016 10.2131 57.7613 6.22589 53.7741C2.23872 49.787 -0.00161589 44.3795 -0.00218411 38.7408C-0.00537005 35.8809 0.570194 33.05 1.68971 30.4184C2.80923 27.7868 4.44963 25.4088 6.51219 23.4278L21.2615 8.67852L27.6193 15.0342L12.5893 30.0643ZM208.404 18.8614L198.105 31.8172L187.807 18.8614L176.807 18.8915L192.491 38.8822L176.807 58.6136L188.265 58.5835L198.105 46.0392L207.947 58.5835L219.405 58.6136L203.721 38.8822L219.405 18.8915L208.404 18.8614ZM158.554 17.475C161.346 17.475 164.111 18.0249 166.691 19.0934C169.27 20.1619 171.614 21.728 173.588 23.7023C175.563 25.6766 177.129 28.0205 178.197 30.6C179.266 33.1796 179.816 35.9444 179.816 38.7365C179.815 44.3752 177.575 49.7828 173.588 53.7699C169.601 57.7571 164.193 59.9973 158.554 59.9979C152.916 59.9967 147.509 57.7563 143.522 53.7693C139.534 49.7822 137.294 44.375 137.293 38.7365C137.293 33.0978 139.534 27.6901 143.521 23.703C147.508 19.7158 152.916 17.4756 158.554 17.475ZM158.554 26.4751C155.301 26.4756 152.182 27.768 149.882 30.0681C147.582 32.3683 146.289 35.4879 146.289 38.7408C146.289 41.9937 147.582 45.1132 149.882 47.4133C152.182 49.7134 155.301 51.0059 158.554 51.0065C161.807 51.0059 164.927 49.7134 167.227 47.4133C169.527 45.1132 170.819 41.9937 170.82 38.7408C170.819 35.4879 169.527 32.3683 167.227 30.0681C164.927 27.768 161.807 26.4756 158.554 26.4751ZM67.0329 17.475C69.825 17.475 72.5897 18.0249 75.1693 19.0934C77.7488 20.1619 80.0927 21.728 82.067 23.7023C84.0413 25.6766 85.6074 28.0205 86.6759 30.6C87.7444 33.1796 88.2943 35.9444 88.2943 38.7365C88.2937 44.3752 86.0535 49.7828 82.0664 53.7699C78.0792 57.7571 72.6716 59.9973 67.0329 59.9979C61.3942 59.9973 55.9865 57.7571 51.9994 53.7699C48.0122 49.7828 45.772 44.3752 45.7714 38.7365C45.772 33.0978 48.0122 27.6901 51.9994 23.703C55.9865 19.7158 61.3942 17.4756 67.0329 17.475ZM67.0329 26.4751C63.78 26.4756 60.6605 27.768 58.3603 30.0681C56.0602 32.3683 54.7677 35.4879 54.7672 38.7408C54.7677 41.9937 56.0602 45.1132 58.3603 47.4133C60.6605 49.7134 63.78 51.0059 67.0329 51.0065C70.2861 51.0065 73.4062 49.7142 75.7068 47.414C78.0074 45.1138 79.3002 41.994 79.3008 38.7408C79.3002 35.4875 78.0074 32.3677 75.7068 30.0675C73.4062 27.7673 70.2861 26.4751 67.0329 26.4751ZM112.791 26.4751C116.044 26.4756 119.164 27.768 121.464 30.0681C123.764 32.3683 125.057 35.4879 125.057 38.7408C125.057 41.9937 123.764 45.1132 121.464 47.4133C119.164 49.7134 116.044 51.0059 112.791 51.0065C109.539 51.0059 106.419 49.7134 104.119 47.4133C101.819 45.1132 100.526 41.9937 100.526 38.7408C100.525 37.1296 100.843 35.5339 101.459 34.0453C102.075 32.5566 102.979 31.204 104.118 30.0646C105.257 28.9252 106.61 28.0214 108.098 27.4047C109.587 26.7881 111.182 26.4707 112.794 26.4707L112.791 26.4751Z" fill="#3E3E3E"/>
  </g>
  <defs>
    <clipPath id="clip0_1_10">
      <rect width="219.403" height="60" fill="#3E3E3E"/>
    </clipPath>
  </defs>
</svg>