<svg xmlns="http://www.w3.org/2000/svg" width="212" height="60" viewBox="0 0 212 60" fill="none">
  <g clip-path="url(#clip0_1_18)">
    <path fill-rule="evenodd" clip-rule="evenodd" d="M0.459778 57.966H15.8556L21.8705 29.9588H22.0274L32.7496 57.966H47.7458L59.4767 2.04515H44.5515L38.772 29.7418H38.6151L27.6575 2.04515H12.0338L0.459778 57.966ZM76.7741 57.966H91.3108L95.6183 37.5499L96.0629 37.2169L102.257 57.966H116.697L110.562 35.5371L126.025 17.317H108.903L97.3966 31.186H96.952L103.359 2.04515H88.3481L76.7741 57.966ZM166.075 57.966H180.611L185.15 36.4275C186.084 32.1961 186.966 29.3228 191.894 29.3228C194.397 29.3228 195.286 30.3292 195.084 32.6189C194.946 34.2576 194.072 37.6659 193.598 40.0154L189.432 57.9698H204.917L209.849 35.0208C210.469 32.0465 211.011 29.1619 211.227 27.3699C212.061 20.6056 208.033 16.2171 200.685 16.3256C194.206 16.4266 191.423 20.2315 188.449 23.9129H188.296L189.469 17.3208H174.533L166.075 57.966ZM64.834 6.72548C64.834 3.08522 68.6522 0.137115 73.3632 0.137115C78.0743 0.137115 81.8961 3.08896 81.8961 6.72548C81.8961 10.362 78.078 13.3139 73.3632 13.3139C68.6559 13.3101 64.834 10.362 64.834 6.72548ZM55.3447 57.966H69.8813L78.3283 17.317H63.7917L55.3447 57.966Z" fill="#3E3E3E"/>
    <path fill-rule="evenodd" clip-rule="evenodd" d="M136.714 40.7113C138.014 33.6178 139.303 26.8236 144.899 26.6253C148.688 26.4869 148.688 30.0224 147.686 36.3115C147.133 39.7909 145.097 48.104 140.506 48.003C136.131 47.9095 136.124 43.9475 136.714 40.7113ZM120.294 39.9518C118.807 54.6849 130.43 59.3952 140.551 58.9799C158.663 58.2392 163.374 44.359 165.032 34.078C166.747 23.4303 157.385 15.7345 145.497 15.7345C128.921 15.7345 121.748 25.6227 120.294 39.9518Z" fill="#3E3E3E"/>
  </g>
  <defs>
    <clipPath id="clip0_1_18">
      <rect width="211.875" height="60" fill="#3E3E3E"/>
    </clipPath>
  </defs>
</svg>