<svg xmlns="http://www.w3.org/2000/svg" width="385" height="60" viewBox="0 0 385 60" fill="none">
  <path fill-rule="evenodd" clip-rule="evenodd" d="M92.4195 33.055C92.4195 23.6154 91.2864 16.1337 72.5553 16.1337C56.9213 16.1337 51.6977 21.7522 51.8087 31.0108H65.8057C66.182 27.6113 69.3841 26.1059 71.5722 26.1059C73.2339 26.1059 76.7054 26.4843 76.7075 29.3532C76.7157 37.9537 49.6596 30.0175 49.6596 48.3126C49.6596 56.545 58.2005 59.8848 62.6612 59.7738C68.5491 59.6298 73.0817 58.5666 77.5383 54.4123L79.2494 58.6427H93.1352C92.4771 57.1311 92.4195 33.055 92.4195 33.055ZM69.4437 50.7393C66.3486 50.7393 65.0139 48.6272 65.0344 46.6632C65.0715 43.3049 72.0226 43.4262 77.1578 40.9337C77.5383 46.3671 74.9573 50.7393 69.4437 50.7393ZM369.725 42.038C369.271 45.1332 367.685 48.9769 363.607 48.9769C358.663 48.9769 355.959 44.1645 355.959 38.1984C355.959 33.5177 357.715 27.235 363.607 27.235C365.347 27.235 366.704 27.7635 367.683 28.8206C368.668 29.8036 369.269 31.1609 369.347 32.8987H384.45C383.317 21.1928 374.18 16.6601 363.607 16.6601C350.54 16.6601 340.86 24.436 340.86 37.9537C340.86 51.3213 350.842 59.5476 363.607 59.5476C374.556 59.5476 383.393 54.0442 384.755 42.036L369.725 42.038ZM324.051 58.6756H339.219V18.0092H324.051V58.6756ZM324.051 11.7882H339.219V1.40051H324.051V11.7882ZM252.724 16.2427C239.356 16.2427 230.157 24.2632 230.157 38.0093C230.157 51.529 240.111 59.5476 252.8 59.5476C265.489 59.5476 275.455 51.7388 275.455 37.238C275.453 24.9296 266.694 16.2427 252.724 16.2427ZM252.8 48.9748C248.796 48.9748 245.699 44.6786 245.699 37.201C245.699 32.7465 247.591 27.2329 252.948 27.2329C257.028 27.0067 259.91 31.6997 259.91 37.5157C259.91 44.9954 257.028 48.9748 252.8 48.9748ZM202.659 27.8725C202.696 25.9085 204.829 24.9974 207.548 24.9974C208.757 24.9974 210.456 25.2977 211.286 25.9805C211.687 26.3075 212.635 27.4776 212.796 28.8514H227.07C226.682 18.2869 216.321 16.0823 207.062 16.0823C198.832 16.0823 188.152 19.3357 188.134 29.456C188.107 46.0586 213.503 39.9979 213.503 46.3403C213.503 49.1373 211.41 50.1882 207.663 50.1882C206.149 50.1882 204.522 49.1681 203.541 48.4134C202.48 47.5825 202.046 46.6118 201.878 44.7856H187.774C188.049 55.8684 198.161 60 207.225 60C224.031 60 228.878 52.6931 228.94 44.4607C229.053 28.5861 202.554 33.5733 202.659 27.8725ZM185.464 33.055C185.464 23.6154 184.331 16.1337 165.6 16.1337C149.966 16.1337 144.742 21.7522 144.853 31.0108H158.85C159.229 27.6113 162.429 26.1059 164.621 26.1059C166.283 26.1059 169.752 26.4843 169.756 29.3532C169.762 37.9537 142.706 30.0175 142.706 48.3126C142.706 56.545 151.247 59.8848 155.708 59.7738C161.596 59.6298 166.133 58.5666 170.587 54.4123L172.298 58.6427H186.184C185.52 57.1311 185.464 33.055 185.464 33.055ZM162.486 50.7393C159.391 50.7393 158.057 48.6272 158.077 46.6632C158.114 43.3049 165.067 43.4262 170.203 40.9337C170.579 46.3671 168 50.7393 162.486 50.7393ZM26.9491 0H0V58.6324H17.4046V40.4463H27.5517C43.1856 40.4463 50.8072 32.0432 50.8072 20.3373C50.8093 9.1599 42.583 0 26.9491 0ZM26.147 27.5517H17.4067V14.326H23.8067C27.5805 14.326 33.3203 15.3522 33.3203 20.4113C33.3224 25.0941 30.3013 27.5517 26.147 27.5517ZM305.993 16.2406C300.029 16.2406 297.509 17.2319 291.959 22.3013L292 17.8015L277.608 17.7892V58.6694H292V37.201C292 32.1398 294.604 29.0447 299.439 29.0447C303.893 29.0447 304.954 31.381 304.954 35.309V58.6715H320.66V33.6514C320.658 22.7763 316.415 16.2406 305.993 16.2406ZM125.448 16.2406C119.482 16.2406 116.962 17.2319 111.414 22.3013L111.451 17.8015L97.0632 17.7892V58.6694H112.222V37.201C112.222 32.1398 114.221 28.4751 119.056 28.4751C123.511 28.4751 124.405 31.381 124.405 35.309V58.6715H140.115V33.6514C140.111 22.7763 135.868 16.2406 125.448 16.2406Z" fill="#3E3E3E"/>
</svg>