<svg xmlns="http://www.w3.org/2000/svg" width="316" height="60" viewBox="0 0 316 60" fill="none">
  <path fill-rule="evenodd" clip-rule="evenodd" d="M137.706 35.3524L122.495 0H105.595V59.9983H121.087V26.0555L135.734 59.9983H153.2V0H137.706V35.3524ZM55.4706 59.9983H97.7243V49.0132H72.9366V35.2106H93.7807V23.6617H72.9366V11.5489H97.7243V0H55.4706V59.9983ZM211.505 0H159.112V11.5489H176.578V59.9983H194.039V11.5489H211.505V0ZM238.229 0H222.455L203.017 60H219.217L221.611 50.7031H239.077L239.083 50.6609L241.47 60H257.667L238.229 0ZM224.146 40.2819L230.342 16.4784L236.428 40.2819H224.146ZM297.105 28.8714L312.741 0H296.122L287.246 19.1542L278.514 0H259.926L277.108 29.2952L259.009 59.9983H277.67L287.529 39.0833L298.232 59.9983H315.84L297.105 28.8714ZM31.8308 0H0V60H17.466V45.6335H31.8325C48.8748 45.6335 49.2969 35.2106 49.2969 30.9851V16.1965C49.2969 2.53567 37.6061 0 31.8308 0ZM31.8308 27.1832C31.8308 33.6608 27.1833 34.0846 25.2114 34.0846H17.466V11.5489H26.3392C31.5489 11.5489 31.8308 15.3507 31.8308 17.6045V27.1832Z" fill="#3E3E3E"/>
</svg>