<svg xmlns="http://www.w3.org/2000/svg" width="284" height="60" fill="none" viewBox="0 0 284 60"><path fill="#3E3E3E" fill-rule="evenodd" d="M63.69 57.0019h12.0881V2.535H63.69v54.4669ZM196.326 2.535l-8.483 30.2138h-.165L178.792 2.535h-15.526l-8.625 54.4669h11.865l5.396-38.9644h.159l10.731 38.9663h10.001l10.352-38.9663h.187l5.691 38.9663h12.216L212.134 2.535h-15.808ZM244.609 2.5444l-21.596 54.465h11.971l4.362-10.8844h26.73l4.29 10.8844h12.789l-21.666-54.465h-16.88Zm8.139 9.8644h.143l9.187 23.4562h-18.652l9.322-23.4562ZM115.498 24.6469v11.25h19.262v.7012c0 7.1569-6.294 12.3038-16.586 12.3038-10.377 0-18.649-5.5031-18.649-18.8663 0-13.635 8.726-18.9375 18.662-18.9375a41.3764 41.3764 0 0 1 20.195 4.6763l5.545-9.24a54.4122 54.4122 0 0 0-25.74-6.3638c-16.596 0-31.3989 8.8331-31.3989 30.0844 0 18.6394 12.825 29.3081 30.8209 29.3081 19.849 0 29.318-9.4575 29.683-26.475.059-2.5312-.045-4.9668-.204-8.4375l-31.59-.0037ZM39.1744 25.3125c-7.53-1.6181-12.6207-.9937-20.2313-2.4469-4.7662-.9037-6.2287-2.6156-6.2287-4.9931 0-4.5262 5.9831-6.8512 13.905-6.8512a44.4635 44.4635 0 0 1 18.4968 4.2131l5.8275-9.8663A57.4649 57.4649 0 0 0 25.3744.0001C15.6206 0 .2794 4.483.2794 18.6674c0 8.34 5.6006 13.3763 12.7087 15.045 6.8513 1.5919 11.1844 1.1963 19.3913 2.4375 5.3212.7988 7.4287 2.5369 7.4287 5.6044 0 4.38-5.6006 7.0725-13.875 7.0725a54.1886 54.1886 0 0 1-21-4.4381L0 54.6131A61.8485 61.8485 0 0 0 25.125 60c16.7194 0 27.6019-7.125 27.6019-19.1419 0-8.025-4.8282-13.6556-13.5544-15.5418" clip-rule="evenodd"/></svg>