<svg xmlns="http://www.w3.org/2000/svg" width="342" height="60" viewBox="0 0 342 60" fill="none">
  <path fill-rule="evenodd" clip-rule="evenodd" d="M340.099 52.2107C340.099 51.7182 339.881 51.1999 339.445 50.9527C339.006 50.6927 338.515 50.6671 338.022 50.6671H335.479V56.5029H336.191V53.8111H337.504L339.171 56.5029H340.018L338.255 53.8111C339.295 53.7818 340.099 53.3589 340.099 52.2107ZM337.284 53.249H336.189V51.1853H337.856C338.581 51.1853 339.376 51.2952 339.376 52.1979C339.378 53.3863 338.103 53.249 337.284 53.249ZM306.811 23.9965L317.487 12.5977C318.106 11.7608 318.414 11.1749 318.414 10.6732C318.414 9.83633 317.694 9.50123 315.431 9.50123H312.737V2.30485H341.894V9.50123H338.063C333.638 9.50123 332.816 10.1696 326.643 17.9519L309.754 36.1901V47.3198C309.754 50.1672 311.191 51.1688 315.308 51.1688H321.684V58.1125H280.846V51.1688H287.223C291.335 51.1688 292.777 50.1672 292.777 47.3198V36.1901L272.884 14.1853C269.597 10.3381 270.051 9.50123 260.899 9.50123V2.30485H297.831V9.50123H295.201C292.526 9.50123 291.392 10.003 291.392 11.0064C291.392 11.8451 292.214 12.5134 292.729 13.1818L302.793 24.1503C303.989 25.3937 305.449 25.5548 306.811 23.9965ZM59.0157 2.30302H67.9246V22.3833H59.6969C58.968 18.3694 56.4556 16.8075 54.1648 14.7017C50.0317 10.9039 41.0807 7.7415 33.5525 7.7415C23.8361 7.7415 15.6359 10.7556 15.6359 15.1869C15.6359 27.4885 71.2043 17.6992 71.2043 40.9584C71.2043 53.0897 59.3013 59.8667 37.9255 59.8667C30.5255 59.8667 19.3276 57.5705 12.7205 54.062C10.6494 52.8663 9.77045 55.1937 9.38223 58.1107H0.248097V37.3602H8.51057C10.3326 42.632 12.8432 43.7179 15.1524 45.8109C19.1591 49.4933 28.6961 52.1723 37.442 52.0862C50.6287 51.9562 55.1628 49.074 55.1628 44.8898C55.1628 40.7075 50.6781 39.7022 36.2279 37.4444L23.9588 35.4356C10.1129 33.3427 0.0320129 30.248 0.0320129 19.2044C0.0320129 7.7415 12.7846 0.545117 32.9482 0.545117C41.4451 0.545117 48.5539 1.68043 55.377 5.53681C57.2668 6.76551 59.0395 6.912 59.0157 2.30302ZM232.879 35.9227L233.055 13.6048C233.055 10.6768 231.531 9.67335 227.179 9.67335H222.064V2.72967H254.605V9.67335H250.364C246.007 9.67335 244.484 10.6786 244.484 13.6048V58.5355L231.747 58.4348L190.501 19.3784V47.7427C190.501 50.5883 192.025 51.6742 196.377 51.6742H202.04V58.5355H168.244V51.6742H173.844C178.197 51.6742 179.721 50.5865 179.721 47.7427V13.6048C179.721 10.6768 178.197 9.67335 173.844 9.67335H168.244V2.72967H197.463L232.879 35.9227ZM123.879 0.123962C97.9456 0.123962 81.7118 11.5887 81.7118 29.9935C81.7118 48.0687 97.7204 59.4456 123.088 59.4456C150.033 59.4456 165.706 48.2353 165.706 29.0743C165.708 11.8396 148.795 0.123962 123.879 0.123962ZM123.29 52.1686C108.935 52.1686 100.683 43.8845 100.683 29.576C100.683 15.6044 109.294 7.32034 124.008 7.32034C138.123 7.32034 146.374 15.7729 146.374 30.1638C146.374 44.2196 138.002 52.1686 123.29 52.1686Z" fill="#3E3E3E"/>
</svg>