<svg xmlns="http://www.w3.org/2000/svg" width="368" height="60" viewBox="0 0 368 60" fill="none">
  <path fill-rule="evenodd" clip-rule="evenodd" d="M58.4183 0.62851V14.4643H37.2044V59.6618H21.216V14.4643H0V0.62851H58.4183ZM81.1698 15.232C80.7096 13.5418 78.8645 13.3891 78.2495 15.0793L71.7918 37.5233H87.6275L81.1698 15.232ZM91.3176 50.4366H68.1038L65.4889 59.6618H49.8081L66.7169 0.626419H92.6962L109.607 59.6618H93.9262L91.3176 50.4366ZM116.209 0.553195H174.347C176.091 0.553195 177.818 0.896742 179.429 1.56422C181.041 2.2317 182.505 3.21005 183.738 4.44338C184.971 5.6767 185.949 7.14085 186.616 8.75222C187.283 10.3636 187.627 12.0906 187.626 13.8347V59.6765H171.567L171.64 17.1231C171.64 16.4185 171.36 15.7428 170.862 15.2445C170.364 14.7463 169.688 14.4664 168.983 14.4664H159.882V59.664H143.893V14.4643H132.21V59.6618H116.222L116.209 0.553195ZM315.136 0.553195H354.363C357.886 0.553195 361.264 1.95242 363.755 4.44312C366.246 6.93382 367.646 10.312 367.647 13.8347V59.6765H351.585L351.658 17.1231C351.658 16.4185 351.379 15.7428 350.88 15.2445C350.382 14.7463 349.706 14.4664 349.002 14.4664H331.135V59.664H315.146L315.136 0.553195ZM210.305 43.6714H226.402C226.751 43.6711 227.097 43.7396 227.419 43.873C227.742 44.0064 228.035 44.2021 228.282 44.4488C228.529 44.6955 228.725 44.9885 228.858 45.3109C228.992 45.6334 229.061 45.979 229.061 46.3281V59.62H245.049V44.4454C245.2 40.6005 241.273 37.2827 238.315 36.4815C240.721 35.4651 242.773 33.7621 244.217 31.5856C245.66 29.4091 246.43 26.8555 246.43 24.2439V13.91C246.43 10.387 245.03 7.00823 242.539 4.51708C240.048 2.02593 236.669 0.626419 233.146 0.626419H194.316V59.6618H210.305V43.6714ZM210.305 14.4643H224.45C228.948 14.4643 230.751 18.1126 230.751 22.6123C230.751 27.1119 228.95 30.7602 224.45 30.7602H210.305V14.4643ZM309.155 29.9925C309.306 46.9034 308.85 51.5118 304.697 55.9739C300.547 60.4317 285.017 59.9694 280.559 59.9694C276.101 59.9694 260.575 60.4317 256.425 55.9739C252.274 51.5118 251.812 46.9034 251.967 29.9925C251.812 13.0816 252.272 8.46894 256.425 4.0111C260.575 -0.446732 276.101 0.0134787 280.559 0.0134787C285.017 0.0134787 300.547 -0.446732 304.697 4.0111C308.85 8.46894 309.306 13.0816 309.155 29.9925ZM292.707 29.9925C292.707 24.7648 292.809 17.2716 291.477 15.5396C289.941 13.5418 284.866 13.8472 280.559 13.8472C276.256 13.8472 271.183 13.5418 269.646 15.5396C268.313 17.2716 268.416 24.7648 268.416 29.9925C268.416 35.218 268.313 42.7112 269.646 44.4433C271.181 46.4411 276.256 46.1315 280.559 46.1315C284.866 46.1315 289.939 46.4411 291.477 44.4433C292.809 42.7112 292.707 35.218 292.707 29.9925Z" fill="#3E3E3E"/>
</svg>